<svg width="16" height="16" viewBox="0 0 16 16" fill="none" xmlns="http://www.w3.org/2000/svg">
<path fill-rule="evenodd" clip-rule="evenodd" d="M15.8324 0.166013C15.9108 0.244272 15.9647 0.343609 15.9876 0.451942C16.0105 0.560275 16.0015 0.672935 15.9616 0.776219L10.248 15.6314C10.2076 15.7365 10.137 15.8274 10.0451 15.8925C9.95318 15.9576 9.84409 15.9941 9.73151 15.9974C9.61893 16.0007 9.50789 15.9706 9.41234 15.911C9.31678 15.8514 9.24098 15.7648 9.19446 15.6623L6.80505 10.4058L10.32 6.88971C10.4714 6.72724 10.5538 6.51236 10.5499 6.29033C10.546 6.0683 10.456 5.85646 10.299 5.69944C10.142 5.54242 9.93016 5.45247 9.70813 5.44855C9.4861 5.44464 9.27122 5.52705 9.10875 5.67844L5.59264 9.19341L0.336183 6.80515C0.233301 6.75868 0.14649 6.68278 0.0867044 6.58703C0.0269191 6.49127 -0.00316016 6.37995 0.000262805 6.26711C0.00368577 6.15428 0.0404576 6.04498 0.105937 5.95303C0.171417 5.86107 0.26267 5.79057 0.368179 5.75043L15.2234 0.036887C15.3265 -0.00279408 15.4389 -0.0117158 15.547 0.0112026C15.6552 0.034121 15.7543 0.0878961 15.8324 0.166013Z" fill="#C3E88D"/>
</svg>
