<svg width="24" height="24" viewBox="0 0 24 24" fill="none" xmlns="http://www.w3.org/2000/svg">
<path d="M7.81755 5.67944C8.39452 5.67944 8.92815 5.72459 9.41573 5.85822C9.90421 5.94761 10.3042 6.12639 10.6591 6.34941C11.0148 6.57274 11.2812 6.88545 11.4581 7.28755C11.636 7.68936 11.7254 8.18145 11.7254 8.71688C11.7254 9.34261 11.5918 9.87805 11.2812 10.2798C11.0148 10.6826 10.5706 11.0392 10.0378 11.3074C10.7927 11.5313 11.3697 11.9331 11.7254 12.4685C12.0812 13.004 12.3024 13.6748 12.3024 14.4342C12.3024 15.0599 12.1687 15.5954 11.9466 16.0423C11.7254 16.4893 11.3697 16.8911 10.9697 17.1592C10.535 17.4464 10.0547 17.6576 9.54936 17.7841C9.01663 17.9186 8.48391 18.008 7.95118 18.008H2V5.67944H7.81755ZM7.4618 10.6817C7.95028 10.6817 8.35027 10.548 8.66088 10.325C8.97149 10.102 9.10512 9.69927 9.10512 9.20808C9.10512 8.93991 9.05997 8.67174 8.97149 8.49386C8.883 8.31599 8.74937 8.18055 8.57239 8.04691C8.39144 7.94529 8.19683 7.87018 7.99452 7.82389C7.7724 7.77875 7.55119 7.77875 7.28392 7.77875H4.70878V10.6826L7.4618 10.6817ZM7.59543 15.9529C7.86179 15.9529 8.12815 15.9078 8.35027 15.8635C8.57239 15.8184 8.79451 15.7299 8.97149 15.5954C9.15171 15.4639 9.30293 15.2967 9.41573 15.1042C9.50421 14.8812 9.5936 14.613 9.5936 14.3006C9.5936 13.6748 9.41573 13.2279 9.06088 12.9155C8.70512 12.6473 8.21664 12.5137 7.63967 12.5137H4.70878V15.9538L7.59543 15.9529ZM16.166 15.9078C16.5211 16.2653 17.0539 16.4441 17.7642 16.4441C18.2527 16.4441 18.6969 16.3105 19.0517 16.0875C19.4075 15.819 19.6296 15.5508 19.7181 15.283H21.8942C21.5384 16.3547 21.0057 17.1141 20.296 17.6053C19.5845 18.0522 18.7411 18.3204 17.7199 18.3204C17.0666 18.3214 16.4189 18.2001 15.8102 17.9628C15.2623 17.7585 14.7738 17.4209 14.389 16.9805C13.9758 16.5699 13.6708 16.0633 13.5015 15.506C13.2793 14.9254 13.19 14.3006 13.19 13.5855C13.19 12.9155 13.2793 12.2907 13.5015 11.7092C13.7145 11.149 14.0309 10.6338 14.4342 10.1905C14.8333 9.78866 15.3218 9.432 15.8545 9.20808C16.4475 8.96998 17.0809 8.84857 17.7199 8.85052C18.4748 8.85052 19.1411 8.98505 19.7181 9.29747C20.296 9.60988 20.7393 9.96744 21.0942 10.5038C21.4499 10.995 21.7172 11.5755 21.8942 12.2013C21.9826 12.8261 22.0269 13.4518 21.9826 14.166H15.5439C15.5439 14.8812 15.8102 15.5511 16.166 15.9087M18.9633 11.2189C18.6527 10.9065 18.1642 10.7277 17.5863 10.7277C17.2475 10.7226 16.9124 10.7991 16.6093 10.9507C16.343 11.0853 16.166 11.264 15.9881 11.4428C15.8236 11.6148 15.7153 11.8327 15.6775 12.0676C15.6324 12.2916 15.5881 12.4694 15.5881 12.6482H19.5845C19.496 11.9783 19.2739 11.5322 18.9633 11.2189ZM15.0554 6.52819H20.0287V7.7345H15.0563L15.0554 6.52819Z" fill="#5E5E5E"/>
</svg>
