<svg width="25" height="24" viewBox="0 0 25 24" fill="none" xmlns="http://www.w3.org/2000/svg">
<path fill-rule="evenodd" clip-rule="evenodd" d="M12.186 22C17.7089 22 22.186 17.5228 22.186 12C22.186 6.47715 17.7089 2 12.186 2C6.66319 2 2.18604 6.47715 2.18604 12C2.18604 17.5228 6.66319 22 12.186 22ZM11.4142 10.6433L8.27935 16.1723C8.08601 16.1009 7.86353 15.9618 7.77646 15.9012L7.64367 16.1004C7.63229 16.1763 7.96141 16.3596 8.1274 16.4418L7.36386 17.7365C7.20451 17.9718 7.38283 17.9326 7.49191 17.8836L8.05152 17.6227C8.39677 17.4899 8.44647 17.3866 8.47926 17.1177C8.51206 16.8488 8.68247 16.6243 8.84984 16.6225C11.0176 16.5996 13.0282 15.3815 13.7117 14.7445C15.1117 13.3016 14.7459 12.3468 14.3881 12.0498C13.1771 11.2854 11.1924 13.0052 10.3514 13.9607C10.4051 13.6816 10.7486 13.177 11.4142 12.2108C11.8959 11.5117 12.5588 10.8234 13.0228 10.3418L13.0228 10.3417C13.2 10.1578 13.3482 10.0039 13.4462 9.89114C13.7296 9.56477 13.6223 9.15464 13.5292 9.02223C14.1472 8.79663 15.064 8.14011 15.6499 6.88652C16.0722 5.98314 15.9018 5.69052 15.7086 5.68336C14.3688 5.70913 12.2874 9.00076 11.4142 10.6433ZM13.0614 8.97474C14.5062 8.00541 15.1443 6.75913 15.2828 6.25716C15.1415 6.32616 14.5754 7.01299 14.0746 7.62056L14.0746 7.62058L14.0745 7.62073C13.8906 7.84376 13.7156 8.0561 13.5737 8.22327C13.1507 8.72134 12.373 10.0416 12.037 10.6395L12.977 9.68249C13.1544 9.51561 13.1593 9.33629 13.1395 9.26748L13.0614 8.97474ZM13.5737 12.3786C12.1607 12.2057 9.87898 14.9199 8.91472 16.2986C12.0192 16.0431 13.4241 14.0881 13.7188 13.2727C13.9546 12.6203 13.7203 12.4048 13.5737 12.3786Z" fill="#5E5E5E"/>
</svg>
