<svg width="25" height="24" viewBox="0 0 25 24" fill="none" xmlns="http://www.w3.org/2000/svg">
<path d="M13.213 1.99976C14.338 2.00276 14.909 2.00876 15.402 2.02276L15.596 2.02976C15.82 2.03776 16.041 2.04776 16.308 2.05976C17.372 2.10976 18.098 2.27776 18.735 2.52476C19.395 2.77876 19.951 3.12276 20.507 3.67776C21.0157 4.17749 21.4092 4.78223 21.66 5.44976C21.907 6.08676 22.075 6.81276 22.125 7.87776C22.137 8.14376 22.147 8.36476 22.155 8.58976L22.161 8.78376C22.176 9.27576 22.182 9.84676 22.184 10.9718L22.185 11.7178V13.0278C22.1874 13.7572 22.1798 14.4866 22.162 15.2158L22.156 15.4098C22.148 15.6348 22.138 15.8558 22.126 16.1218C22.076 17.1868 21.906 17.9118 21.66 18.5498C21.4092 19.2173 21.0157 19.822 20.507 20.3218C20.0073 20.8305 19.4025 21.2239 18.735 21.4748C18.098 21.7218 17.372 21.8898 16.308 21.9398L15.596 21.9698L15.402 21.9758C14.909 21.9898 14.338 21.9968 13.213 21.9988L12.467 21.9998H11.158C10.4283 22.0023 9.69853 21.9947 8.969 21.9768L8.775 21.9708C8.53761 21.9618 8.30027 21.9514 8.063 21.9398C6.999 21.8898 6.273 21.7218 5.635 21.4748C4.96783 21.2238 4.36344 20.8303 3.864 20.3218C3.35495 19.8221 2.96111 19.2174 2.71 18.5498C2.463 17.9128 2.295 17.1868 2.245 16.1218L2.215 15.4098L2.21 15.2158C2.19157 14.4866 2.18323 13.7572 2.185 13.0278V10.9718C2.18223 10.2424 2.18957 9.51295 2.207 8.78376L2.214 8.58976C2.222 8.36476 2.232 8.14376 2.244 7.87776C2.294 6.81276 2.462 6.08776 2.709 5.44976C2.9607 4.78195 3.35523 4.17719 3.865 3.67776C4.36416 3.1693 4.96819 2.77583 5.635 2.52476C6.273 2.27776 6.998 2.10976 8.063 2.05976C8.329 2.04776 8.551 2.03776 8.775 2.02976L8.969 2.02376C9.69819 2.00599 10.4276 1.99832 11.157 2.00076L13.213 1.99976ZM12.185 6.99976C10.8589 6.99976 9.58715 7.52654 8.64947 8.46422C7.71179 9.4019 7.185 10.6737 7.185 11.9998C7.185 13.3258 7.71179 14.5976 8.64947 15.5353C9.58715 16.473 10.8589 16.9998 12.185 16.9998C13.5111 16.9998 14.7829 16.473 15.7205 15.5353C16.6582 14.5976 17.185 13.3258 17.185 11.9998C17.185 10.6737 16.6582 9.4019 15.7205 8.46422C14.7829 7.52654 13.5111 6.99976 12.185 6.99976ZM12.185 8.99976C12.579 8.99969 12.9691 9.07722 13.3331 9.22793C13.6971 9.37863 14.0278 9.59955 14.3065 9.87808C14.5851 10.1566 14.8061 10.4873 14.9569 10.8512C15.1078 11.2152 15.1854 11.6053 15.1855 11.9993C15.1856 12.3932 15.108 12.7833 14.9573 13.1473C14.8066 13.5113 14.5857 13.8421 14.3072 14.1207C14.0286 14.3993 13.698 14.6204 13.334 14.7712C12.9701 14.922 12.58 14.9997 12.186 14.9998C11.3904 14.9998 10.6273 14.6837 10.0647 14.1211C9.50207 13.5585 9.186 12.7954 9.186 11.9998C9.186 11.2041 9.50207 10.441 10.0647 9.87844C10.6273 9.31583 11.3904 8.99976 12.186 8.99976M17.436 5.49976C17.1045 5.49976 16.7865 5.63145 16.5521 5.86587C16.3177 6.10029 16.186 6.41824 16.186 6.74976C16.186 7.08128 16.3177 7.39922 16.5521 7.63364C16.7865 7.86806 17.1045 7.99976 17.436 7.99976C17.7675 7.99976 18.0855 7.86806 18.3199 7.63364C18.5543 7.39922 18.686 7.08128 18.686 6.74976C18.686 6.41824 18.5543 6.10029 18.3199 5.86587C18.0855 5.63145 17.7675 5.49976 17.436 5.49976Z" fill="#5E5E5E"/>
</svg>
