<svg width="25" height="24" viewBox="0 0 25 24" fill="none" xmlns="http://www.w3.org/2000/svg">
<path d="M19.9627 2C20.5521 2 21.1173 2.23413 21.5341 2.65087C21.9508 3.06762 22.1849 3.63285 22.1849 4.22222V19.7778C22.1849 20.3671 21.9508 20.9324 21.5341 21.3491C21.1173 21.7659 20.5521 22 19.9627 22H4.40716C3.81779 22 3.25256 21.7659 2.83581 21.3491C2.41906 20.9324 2.18494 20.3671 2.18494 19.7778V4.22222C2.18494 3.63285 2.41906 3.06762 2.83581 2.65087C3.25256 2.23413 3.81779 2 4.40716 2H19.9627ZM19.4072 19.2222V13.3333C19.4072 12.3727 19.0255 11.4513 18.3462 10.772C17.6669 10.0927 16.7456 9.71111 15.7849 9.71111C14.8405 9.71111 13.7405 10.2889 13.2072 11.1556V9.92222H10.1072V19.2222H13.2072V13.7444C13.2072 12.8889 13.896 12.1889 14.7516 12.1889C15.1642 12.1889 15.5598 12.3528 15.8515 12.6445C16.1433 12.9362 16.3072 13.3319 16.3072 13.7444V19.2222H19.4072ZM6.49605 8.17778C6.99112 8.17778 7.46591 7.98111 7.81598 7.63104C8.16605 7.28098 8.36272 6.80618 8.36272 6.31111C8.36272 5.27778 7.52938 4.43333 6.49605 4.43333C5.99803 4.43333 5.52041 4.63117 5.16826 4.98332C4.81611 5.33547 4.61827 5.81309 4.61827 6.31111C4.61827 7.34444 5.46271 8.17778 6.49605 8.17778ZM8.04049 19.2222V9.92222H4.96271V19.2222H8.04049Z" fill="#5E5E5E"/>
</svg>
