<svg width="24" height="24" viewBox="0 0 24 24" fill="none" xmlns="http://www.w3.org/2000/svg">
<path d="M11.0689 17.2353C11.1653 17.3314 11.2419 17.4456 11.2941 17.5713C11.3463 17.697 11.3731 17.8318 11.3731 17.968C11.3731 18.1041 11.3463 18.2389 11.2941 18.3646C11.2419 18.4903 11.1653 18.6045 11.0689 18.7006L10.6276 19.1419C10.1592 19.6121 9.60216 19.9847 8.98879 20.2383C8.37541 20.4919 7.71786 20.6213 7.05414 20.6192C6.05461 20.6195 5.07745 20.3234 4.24626 19.7682C3.41508 19.213 2.76724 18.4238 2.38469 17.5004C2.00215 16.577 1.90209 15.5608 2.09717 14.5805C2.29226 13.6002 2.77373 12.6998 3.48066 11.9932L6.4758 8.99805C7.11287 8.36107 7.90861 7.90595 8.78065 7.6798C9.65268 7.45365 10.5693 7.46469 11.4357 7.71178C12.302 7.95886 13.0865 8.43301 13.7081 9.08514C14.3296 9.73727 14.7656 10.5437 14.9708 11.4209C15.0048 11.5543 15.0118 11.6931 14.9915 11.8292C14.9711 11.9653 14.9238 12.096 14.8523 12.2136C14.7808 12.3312 14.6865 12.4334 14.575 12.5141C14.4635 12.5948 14.3371 12.6524 14.203 12.6836C14.069 12.7148 13.93 12.719 13.7944 12.6958C13.6587 12.6726 13.529 12.6226 13.4129 12.5487C13.2968 12.4747 13.1967 12.3784 13.1183 12.2652C13.0399 12.1521 12.9849 12.0244 12.9565 11.8898C12.8347 11.3719 12.5769 10.8961 12.2096 10.5113C11.8423 10.1265 11.3789 9.84683 10.8673 9.70114C10.3557 9.55544 9.81446 9.54903 9.29956 9.68257C8.78466 9.81611 8.31477 10.0847 7.93846 10.4607L4.94332 13.4559C4.52582 13.873 4.24141 14.4046 4.12605 14.9834C4.01069 15.5622 4.06956 16.1623 4.29523 16.7076C4.5209 17.253 4.90322 17.7191 5.39385 18.0472C5.88447 18.3752 6.46136 18.5504 7.05156 18.5506C7.44371 18.5518 7.8322 18.4751 8.19452 18.3251C8.55685 18.1751 8.88582 17.9547 9.16238 17.6766L9.60281 17.2353C9.69892 17.1388 9.81315 17.0622 9.93895 17.0099C10.0647 16.9576 10.1996 16.9307 10.3359 16.9307C10.4721 16.9307 10.607 16.9576 10.7328 17.0099C10.8586 17.0622 10.9728 17.1388 11.0689 17.2353ZM20.5198 4.86088C19.5718 3.91322 18.2863 3.38086 16.9459 3.38086C15.6055 3.38086 14.3199 3.91322 13.3719 4.86088L12.9315 5.30131C12.7372 5.49562 12.628 5.75915 12.628 6.03394C12.628 6.30873 12.7372 6.57226 12.9315 6.76656C13.1258 6.96087 13.3893 7.07002 13.6641 7.07002C13.9389 7.07002 14.2025 6.96087 14.3968 6.76656L14.8381 6.32526C15.3981 5.76521 16.1577 5.45058 16.9497 5.45058C17.7418 5.45058 18.5014 5.76521 19.0614 6.32526C19.6215 6.88532 19.9361 7.64491 19.9361 8.43695C19.9361 9.22898 19.6215 9.98857 19.0614 10.5486L16.0611 13.5395C15.7845 13.8175 15.4556 14.0379 15.0933 14.1879C14.7309 14.3379 14.3424 14.4146 13.9503 14.4134C13.2776 14.413 12.6247 14.1852 12.0977 13.7672C11.5706 13.3492 11.2002 12.7653 11.0465 12.1104C10.9843 11.8432 10.8186 11.6116 10.5856 11.4666C10.3527 11.3216 10.0717 11.2751 9.8045 11.3373C9.53727 11.3995 9.30569 11.5652 9.1607 11.7982C9.01571 12.0311 8.96919 12.3121 9.03137 12.5793C9.29089 13.6885 9.9175 14.6774 10.8096 15.3858C11.7016 16.0942 12.8069 16.4805 13.946 16.482H13.9503C14.6143 16.4838 15.2721 16.354 15.8856 16.1C16.4992 15.8459 17.0562 15.4728 17.5246 15.0021L20.5198 12.007C20.9891 11.5378 21.3613 10.9808 21.6153 10.3677C21.8693 9.75462 22 9.09753 22 8.43393C22 7.77033 21.8693 7.11324 21.6153 6.50017C21.3613 5.8871 20.9891 5.33006 20.5198 4.86088Z" fill="#5E5E5E"/>
</svg>
