<svg width="25" height="24" viewBox="0 0 25 24" fill="none" xmlns="http://www.w3.org/2000/svg">
<path d="M13.4679 12C13.4679 15.1364 10.9415 17.6791 7.82694 17.6791C4.7124 17.6791 2.18604 15.1373 2.18604 12C2.18604 8.86274 4.71149 6.32092 7.82694 6.32092C10.9424 6.32092 13.4679 8.86365 13.4679 12ZM19.6542 12C19.6542 14.9527 18.3906 17.3455 16.8342 17.3455C15.276 17.3455 14.0133 14.9518 14.0133 12C14.0133 9.0482 15.2769 6.65456 16.8342 6.65456C18.3915 6.65456 19.6542 9.0482 19.6542 12ZM22.1851 12C22.1851 14.6455 21.7406 16.79 21.1933 16.79C20.6451 16.79 20.2015 14.6446 20.2015 12C20.2015 9.35547 20.6451 7.21001 21.1933 7.21001C21.7415 7.21001 22.186 9.35547 22.186 12.0009" fill="#5E5E5E"/>
</svg>
