<svg width="24" height="24" viewBox="0 0 24 24" fill="none" xmlns="http://www.w3.org/2000/svg">
<path d="M5.71584 5.50645C6.33751 6.01145 6.57084 5.97312 7.73917 5.89478L18.7516 5.23395C18.985 5.23395 18.7908 5.00062 18.7133 4.96229L16.8833 3.63979C16.5333 3.36812 16.0658 3.05646 15.1708 3.13396L4.50835 3.91229C4.12001 3.95062 4.04168 4.14562 4.19668 4.30062L5.71584 5.50645ZM6.37667 8.07311V19.6598C6.37667 20.2823 6.68751 20.5156 7.38834 20.4764L19.4908 19.7764C20.1916 19.7381 20.27 19.3098 20.27 18.8039V7.29478C20.27 6.78978 20.0758 6.51728 19.6466 6.55562L6.99917 7.29478C6.53251 7.33395 6.37667 7.56811 6.37667 8.07311ZM18.3241 8.69395C18.4016 9.04394 18.3241 9.39394 17.9741 9.43394L17.3908 9.55061V18.1039C16.8842 18.3764 16.4175 18.5323 16.0283 18.5323C15.405 18.5323 15.2492 18.3373 14.7825 17.7548L10.9683 11.7664V17.5598L12.175 17.8331C12.175 17.8331 12.175 18.5331 11.2017 18.5331L8.51667 18.6881C8.43917 18.5331 8.51667 18.1439 8.78917 18.0664L9.48917 17.8723V10.2114L8.51834 10.1331C8.44 9.78311 8.635 9.27811 9.17917 9.23894L12.0592 9.04478L16.0292 15.1106V9.74394L15.0167 9.62811C14.9392 9.19978 15.25 8.88894 15.6392 8.85061L18.3241 8.69395ZM3.61335 2.86229L14.705 2.04563C16.0667 1.92896 16.4175 2.00646 17.2733 2.62896L20.8141 5.11729C21.3975 5.54479 21.5925 5.66145 21.5925 6.12812V19.7764C21.5925 20.6314 21.2816 21.1381 20.1925 21.2148L7.31084 21.9931C6.49417 22.0322 6.10417 21.9156 5.67584 21.3706L3.06835 17.9873C2.60168 17.3648 2.40752 16.8989 2.40752 16.3539V4.22229C2.40752 3.52312 2.71918 2.93896 3.61335 2.86229Z" fill="#5E5E5E"/>
</svg>
