<svg width="25" height="24" viewBox="0 0 25 24" fill="none" xmlns="http://www.w3.org/2000/svg">
<path d="M9.22604 21.54C10.186 21.83 11.156 22 12.186 22C14.8382 22 17.3817 20.9464 19.2571 19.0711C21.1325 17.1957 22.186 14.6522 22.186 12C22.186 10.6868 21.9274 9.38642 21.4248 8.17317C20.9223 6.95991 20.1857 5.85752 19.2571 4.92893C18.3285 4.00035 17.2261 3.26375 16.0129 2.7612C14.7996 2.25866 13.4993 2 12.186 2C10.8728 2 9.57246 2.25866 8.3592 2.7612C7.14594 3.26375 6.04355 4.00035 5.11497 4.92893C3.2396 6.8043 2.18604 9.34784 2.18604 12C2.18604 16.25 4.85603 19.9 8.62603 21.34C8.53603 20.56 8.44603 19.27 8.62603 18.38L9.77604 13.44C9.77604 13.44 9.48604 12.86 9.48604 11.94C9.48604 10.56 10.346 9.53 11.326 9.53C12.186 9.53 12.586 10.16 12.586 10.97C12.586 11.83 12.016 13.06 11.726 14.24C11.556 15.22 12.246 16.08 13.246 16.08C15.026 16.08 16.406 14.18 16.406 11.5C16.406 9.1 14.686 7.46 12.216 7.46C9.39604 7.46 7.73604 9.56 7.73604 11.77C7.73604 12.63 8.01604 13.5 8.47604 14.07C8.56604 14.13 8.56604 14.21 8.53604 14.36L8.24604 15.45C8.24604 15.62 8.13604 15.68 7.96604 15.56C6.68604 15 5.94604 13.18 5.94604 11.71C5.94604 8.55 8.18603 5.68 12.506 5.68C15.946 5.68 18.626 8.15 18.626 11.43C18.626 14.87 16.496 17.63 13.446 17.63C12.476 17.63 11.526 17.11 11.186 16.5L10.516 18.87C10.286 19.73 9.65603 20.88 9.22604 21.57V21.54Z" fill="#5E5E5E"/>
</svg>
