<svg width="25" height="24" viewBox="0 0 25 24" fill="none" xmlns="http://www.w3.org/2000/svg">
<g clip-path="url(#clip0_6770_39532)">
<path d="M2.18604 4.5C2.18604 5.16304 2.44943 5.79893 2.91827 6.26777C3.38711 6.73661 4.02299 7 4.68604 7C5.34908 7 5.98496 6.73661 6.4538 6.26777C6.92264 5.79893 7.18604 5.16304 7.18604 4.5C7.18604 3.83696 6.92264 3.20107 6.4538 2.73223C5.98496 2.26339 5.34908 2 4.68604 2C4.02299 2 3.38711 2.26339 2.91827 2.73223C2.44943 3.20107 2.18604 3.83696 2.18604 4.5ZM9.68604 19.5C9.68604 20.163 9.94943 20.7989 10.4183 21.2678C10.8871 21.7366 11.523 22 12.186 22C12.8491 22 13.485 21.7366 13.9538 21.2678C14.4226 20.7989 14.686 20.163 14.686 19.5C14.686 18.837 14.4226 18.2011 13.9538 17.7322C13.485 17.2634 12.8491 17 12.186 17C11.523 17 10.8871 17.2634 10.4183 17.7322C9.94943 18.2011 9.68604 18.837 9.68604 19.5ZM9.68604 12C9.68604 12.663 9.94943 13.2989 10.4183 13.7678C10.8871 14.2366 11.523 14.5 12.186 14.5C12.8491 14.5 13.485 14.2366 13.9538 13.7678C14.4226 13.2989 14.686 12.663 14.686 12C14.686 11.337 14.4226 10.7011 13.9538 10.2322C13.485 9.76339 12.8491 9.5 12.186 9.5C11.523 9.5 10.8871 9.76339 10.4183 10.2322C9.94943 10.7011 9.68604 11.337 9.68604 12ZM9.68604 4.5C9.68604 5.16304 9.94943 5.79893 10.4183 6.26777C10.8871 6.73661 11.523 7 12.186 7C12.8491 7 13.485 6.73661 13.9538 6.26777C14.4226 5.79893 14.686 5.16304 14.686 4.5C14.686 3.83696 14.4226 3.20107 13.9538 2.73223C13.485 2.26339 12.8491 2 12.186 2C11.523 2 10.8871 2.26339 10.4183 2.73223C9.94943 3.20107 9.68604 3.83696 9.68604 4.5ZM17.186 4.5C17.186 5.16304 17.4494 5.79893 17.9183 6.26777C18.3871 6.73661 19.023 7 19.686 7C20.3491 7 20.985 6.73661 21.4538 6.26777C21.9226 5.79893 22.186 5.16304 22.186 4.5C22.186 3.83696 21.9226 3.20107 21.4538 2.73223C20.985 2.26339 20.3491 2 19.686 2C19.023 2 18.3871 2.26339 17.9183 2.73223C17.4494 3.20107 17.186 3.83696 17.186 4.5Z" fill="#5E5E5E"/>
</g>
<defs>
<clipPath id="clip0_6770_39532">
<rect width="20" height="20" fill="white" transform="translate(2.18604 2)"/>
</clipPath>
</defs>
</svg>
