<svg width="25" height="24" viewBox="0 0 25 24" fill="none" xmlns="http://www.w3.org/2000/svg">
<path d="M10.186 15L15.376 12L10.186 9V15ZM21.746 7.17C21.876 7.64 21.966 8.27 22.026 9.07C22.096 9.87 22.126 10.56 22.126 11.16L22.186 12C22.186 14.19 22.026 15.8 21.746 16.83C21.496 17.73 20.916 18.31 20.016 18.56C19.546 18.69 18.686 18.78 17.366 18.84C16.066 18.91 14.876 18.94 13.776 18.94L12.186 19C7.99604 19 5.38604 18.84 4.35604 18.56C3.45604 18.31 2.87604 17.73 2.62604 16.83C2.49604 16.36 2.40604 15.73 2.34604 14.93C2.27604 14.13 2.24604 13.44 2.24604 12.84L2.18604 12C2.18604 9.81 2.34604 8.2 2.62604 7.17C2.87604 6.27 3.45604 5.69 4.35604 5.44C4.82604 5.31 5.68604 5.22 7.00604 5.16C8.30604 5.09 9.49604 5.06 10.596 5.06L12.186 5C16.376 5 18.986 5.16 20.016 5.44C20.916 5.69 21.496 6.27 21.746 7.17Z" fill="#5E5E5E"/>
</svg>
